<svg width="30" height="30" viewBox="0 0 30 30" fill="none" xmlns="http://www.w3.org/2000/svg">
<path d="M21.782 21.7969H8.21949C8.09449 21.7969 7.98512 21.7344 7.93824 21.625C7.89137 21.5156 7.89137 21.3906 7.96949 21.2969C9.21949 19.6719 9.90699 17.6562 9.90699 15.6094V13.5938C9.90699 10.7812 12.1882 8.5 15.0007 8.5C17.8132 8.5 20.0945 10.7812 20.0945 13.5938V15.6094C20.0945 17.6562 20.782 19.6719 22.032 21.2969C22.1101 21.3906 22.1101 21.5156 22.0632 21.625C22.0007 21.7344 21.907 21.7969 21.782 21.7969ZM8.82887 21.1719H21.1726C20.0632 19.5312 19.4695 17.5781 19.4695 15.6094V13.5938C19.4695 11.125 17.4695 9.125 15.0007 9.125C12.532 9.125 10.532 11.125 10.532 13.5938V15.6094C10.532 17.5938 9.93824 19.5469 8.82887 21.1719Z" fill="white"/>
<path d="M19.5625 20.3906C19.5 20.3906 19.4531 20.3594 19.4219 20.2969C18.7344 18.8281 18.375 17.2031 18.375 15.5938V13.5938C18.375 11.7344 16.8594 10.2188 15 10.2188C14.9062 10.2188 14.8438 10.1563 14.8438 10.0625C14.8438 9.96875 14.9062 9.90625 15 9.90625C17.0312 9.90625 18.6875 11.5625 18.6875 13.5938V15.6094C18.6875 17.1719 19.0469 18.75 19.7031 20.1719C19.7344 20.25 19.7031 20.3438 19.625 20.375C19.6094 20.3906 19.5781 20.3906 19.5625 20.3906Z" fill="white"/>
<path d="M15 23.5781C13.8438 23.5781 12.9062 22.6406 12.9062 21.4844C12.9062 21.3125 13.0469 21.1719 13.2188 21.1719H16.7813C16.9531 21.1719 17.0938 21.3125 17.0938 21.4844C17.0938 22.6406 16.1563 23.5781 15 23.5781ZM13.5625 21.7969C13.7031 22.4531 14.2969 22.9531 15 22.9531C15.7031 22.9531 16.2812 22.4531 16.4375 21.7969H13.5625Z" fill="white"/>
<path d="M13.2344 9.46875C13.1094 9.46875 12.9844 9.39062 12.9375 9.25C12.875 9.03125 12.8281 8.8125 12.8281 8.59375C12.8281 7.40625 13.7969 6.42188 15 6.42188C16.1875 6.42188 17.1719 7.39062 17.1719 8.59375C17.1719 8.8125 17.1406 9.04688 17.0625 9.25C17.0156 9.42188 16.8281 9.5 16.6719 9.45312C16.5 9.40625 16.4219 9.21875 16.4688 9.0625C16.5156 8.90625 16.5469 8.75 16.5469 8.59375C16.5469 7.75 15.8594 7.04688 15 7.04688C14.1563 7.04688 13.4531 7.73438 13.4531 8.59375C13.4531 8.75 13.4844 8.90625 13.5312 9.0625C13.5781 9.23438 13.5 9.40625 13.3281 9.45312C13.2969 9.45312 13.2656 9.46875 13.2344 9.46875Z" fill="white"/>
<path d="M8.48438 18C8.40625 18 8.32813 17.9687 8.26562 17.9062C6.65625 16.2969 6.65625 13.6875 8.26562 12.0938C8.39063 11.9688 8.57813 11.9688 8.70313 12.0938C8.82813 12.2188 8.82813 12.4062 8.70313 12.5312C7.34375 13.8906 7.34375 16.1094 8.70313 17.4688C8.82813 17.5938 8.82813 17.7812 8.70313 17.9062C8.64063 17.9687 8.5625 18 8.48438 18Z" fill="white"/>
<path d="M7.18873 19.2344C7.1106 19.2344 7.03248 19.2031 6.96998 19.1406C4.59498 16.7656 4.43873 13.0469 6.62623 10.8438C6.75123 10.7188 6.93873 10.7188 7.06373 10.8438C7.18873 10.9688 7.18873 11.1562 7.06373 11.2812C5.12623 13.2344 5.28248 16.5625 7.4231 18.7031C7.5481 18.8281 7.5481 19.0156 7.4231 19.1406C7.3606 19.2188 7.28248 19.2344 7.18873 19.2344Z" fill="white"/>
<path d="M21.5156 18C21.4375 18 21.3594 17.9687 21.2969 17.9062C21.1719 17.7812 21.1719 17.5938 21.2969 17.4688C22.6562 16.1094 22.6562 13.8906 21.2969 12.5312C21.1719 12.4062 21.1719 12.2188 21.2969 12.0938C21.4219 11.9688 21.6094 11.9688 21.7344 12.0938C23.3437 13.7031 23.3437 16.3125 21.7344 17.9062C21.6719 17.9687 21.5937 18 21.5156 18Z" fill="white"/>
<path d="M22.7969 19.2344C22.7188 19.2344 22.6406 19.2031 22.5781 19.1406C22.4531 19.0156 22.4531 18.8281 22.5781 18.7031C23.625 17.6562 24.2188 16.3125 24.2813 14.9062C24.3438 13.5156 23.8594 12.2187 22.9219 11.2812C22.7969 11.1562 22.7969 10.9688 22.9219 10.8438C23.0469 10.7188 23.2344 10.7188 23.3594 10.8438C24.4219 11.9062 24.9688 13.3594 24.9063 14.9375C24.8438 16.5 24.1719 18 23.0156 19.1406C22.9688 19.2188 22.875 19.2344 22.7969 19.2344Z" fill="white"/>
</svg>
