<svg width="352" height="66" viewBox="0 0 352 66" fill="none" xmlns="http://www.w3.org/2000/svg">
<g clip-path="url(#clip0_1_1675)">
<g filter="url(#filter0_bi_1_1675)">
<path d="M365 52.5C365 85.6371 282.173 120 180 120C77.8273 120 -8 85.6371 -8 52.5C-8 19.3629 77.8273 0 180 0C282.173 0 365 19.3629 365 52.5Z" fill="#020815" fill-opacity="0.8"/>
</g>
<g filter="url(#filter1_bd_1_1675)">
<ellipse cx="180" cy="84.5" rx="185" ry="44.5" fill="#020412" fill-opacity="0.8" shape-rendering="crispEdges"/>
</g>
<g clip-path="url(#clip1_1_1675)">
<path d="M104.713 15L106.015 18.3C106.126 18.58 106.284 18.8 106.489 18.96C106.694 19.12 106.915 19.2 107.152 19.2C107.626 19.2 107.989 18.945 108.242 18.435C108.494 17.925 108.51 17.4 108.289 16.86L107.555 15H109.449L110.752 18.3C110.863 18.58 111.02 18.8 111.226 18.96C111.431 19.12 111.652 19.2 111.889 19.2C112.363 19.2 112.726 18.945 112.978 18.435C113.231 17.925 113.247 17.4 113.026 16.86L112.292 15H114.186L115.489 18.3C115.599 18.58 115.757 18.8 115.963 18.96C116.168 19.12 116.389 19.2 116.626 19.2C117.099 19.2 117.463 18.945 117.715 18.435C117.968 17.925 117.984 17.4 117.763 16.86L117.028 15H119.287C119.766 15 120.171 15.21 120.503 15.63C120.834 16.05 121 16.5631 121 17.1693V30.8307C121 31.4369 120.834 31.95 120.503 32.37C120.171 32.79 119.766 33 119.287 33H104.713C104.234 33 103.829 32.79 103.497 32.37C103.166 31.95 103 31.4369 103 30.8307V17.1693C103 16.5631 103.166 16.05 103.497 15.63C103.829 15.21 104.234 15 104.713 15ZM104.421 21V30.8307C104.421 30.9385 104.448 31.027 104.503 31.0962C104.558 31.1654 104.627 31.2 104.713 31.2H119.287C119.372 31.2 119.442 31.1654 119.497 31.0962C119.552 31.027 119.579 30.9385 119.579 30.8307V21H104.421Z" fill="#ACACAC"/>
<path d="M111.524 27.5784L113.243 26.4739C113.328 26.4203 113.37 26.3458 113.37 26.2504C113.37 26.155 113.328 26.0802 113.243 26.0261L111.524 24.9216C111.435 24.8609 111.345 24.856 111.251 24.907C111.158 24.958 111.112 25.0375 111.112 25.1455V27.3545C111.112 27.4625 111.158 27.542 111.251 27.593C111.345 27.644 111.435 27.6391 111.524 27.5784ZM112.001 30C111.482 30 110.994 29.9016 110.538 29.7047C110.082 29.5079 109.685 29.2408 109.347 28.9033C109.01 28.5659 108.742 28.1691 108.545 27.7129C108.348 27.2567 108.25 26.7693 108.25 26.2507C108.25 25.732 108.348 25.2445 108.545 24.7881C108.742 24.3317 109.009 23.9347 109.347 23.5972C109.684 23.2596 110.081 22.9923 110.537 22.7954C110.993 22.5985 111.481 22.5 111.999 22.5C112.518 22.5 113.006 22.5984 113.462 22.7953C113.918 22.9921 114.315 23.2592 114.653 23.5967C114.99 23.9341 115.258 24.3309 115.455 24.7871C115.652 25.2433 115.75 25.7307 115.75 26.2493C115.75 26.768 115.652 27.2555 115.455 27.7119C115.258 28.1683 114.991 28.5653 114.653 28.9028C114.316 29.2404 113.919 29.5077 113.463 29.7046C113.007 29.9015 112.519 30 112.001 30ZM112 29.4079C112.882 29.4079 113.628 29.102 114.24 28.4901C114.852 27.8783 115.158 27.1316 115.158 26.25C115.158 25.3684 114.852 24.6217 114.24 24.0099C113.628 23.398 112.882 23.0921 112 23.0921C111.118 23.0921 110.372 23.398 109.76 24.0099C109.148 24.6217 108.842 25.3684 108.842 26.25C108.842 27.1316 109.148 27.8783 109.76 28.4901C110.372 29.102 111.118 29.4079 112 29.4079Z" fill="#ACACAC"/>
</g>
<g clip-path="url(#clip2_1_1675)">
<path fill-rule="evenodd" clip-rule="evenodd" d="M179.078 15.4865L178.936 15.1101C178.877 14.9541 178.828 14.8291 178.778 14.7069C178.707 14.5334 178.637 14.3752 178.564 14.2243C178.379 13.848 178.173 13.4821 177.946 13.1283C177.617 12.6125 177.258 12.115 176.872 11.6381C176.52 11.2156 175.832 11.3018 175.604 11.7971L175.534 11.9498C175.278 12.5202 175.038 13.0972 174.815 13.6803C174.703 13.9767 174.598 14.2647 174.504 14.5414C174.182 15.4934 174 16.2596 174 16.8254C174 17.7425 174.219 18.6305 174.635 19.4331C174.726 19.6021 174.883 19.7296 175.07 19.788C175.257 19.8465 175.461 19.8313 175.636 19.7457C175.812 19.6601 175.946 19.5109 176.01 19.3303C176.073 19.1497 176.061 18.9522 175.976 18.7803C175.662 18.1738 175.499 17.5044 175.5 16.8258C175.5 16.4571 175.654 15.8087 175.93 14.9949C176.017 14.7367 176.115 14.4654 176.222 14.1854C176.387 13.7552 176.469 13.5869 176.469 13.5869C176.537 13.6872 176.604 13.7891 176.669 13.8916C176.879 14.2218 177.061 14.5418 177.207 14.8425C177.265 14.9647 177.323 15.096 177.384 15.2436C177.429 15.3527 177.473 15.4665 177.528 15.6123L177.671 15.9905C178.233 17.4658 178.769 18.1189 180 18.1189C180.199 18.1189 180.39 18.0422 180.53 17.9059C180.671 17.7695 180.75 17.5845 180.75 17.3916C180.75 17.1987 180.671 17.0137 180.53 16.8773C180.39 16.7409 180.199 16.6643 180 16.6643C179.629 16.6643 179.438 16.4323 179.078 15.4865ZM186 16.8258C186 15.2621 185.36 13.7952 184.243 12.7116C184.152 12.624 183.768 11.928 183.306 10.9843C182.895 10.1414 182.498 9.29235 182.114 8.43741C181.875 7.90323 181.117 7.84505 180.793 8.33705C180.693 8.49337 180.596 8.65221 180.504 8.81341C180.28 9.20042 180.074 9.59654 179.885 10.0007C179.517 10.788 179.24 11.5643 179.087 12.3061C178.923 13.108 178.911 13.8418 179.09 14.4938C179.114 14.5875 179.157 14.6758 179.216 14.7533C179.276 14.8308 179.35 14.896 179.436 14.9452C179.522 14.9944 179.617 15.0265 179.715 15.0397C179.814 15.0529 179.914 15.0469 180.011 15.0221C180.107 14.9973 180.197 14.9541 180.276 14.8951C180.355 14.8361 180.421 14.7625 180.47 14.6785C180.519 14.5945 180.551 14.5019 180.563 14.406C180.574 14.3101 180.567 14.2128 180.539 14.12C180.427 13.7091 180.435 13.1912 180.558 12.5901C180.686 11.9705 180.928 11.2941 181.251 10.6003L181.368 10.3883C181.559 10.7969 181.753 11.2039 181.951 11.6094C182.529 12.7883 182.907 13.4741 183.182 13.7403C183.601 14.145 183.933 14.626 184.159 15.1556C184.385 15.6852 184.501 16.2529 184.5 16.8261C184.5 17.5061 184.34 18.1618 184.037 18.7571C183.95 18.9298 183.938 19.1288 184.002 19.3105C184.066 19.4923 184.201 19.6421 184.379 19.7272C184.557 19.8123 184.762 19.8258 184.95 19.7648C185.137 19.7037 185.293 19.5731 185.382 19.4014C185.79 18.6004 186.001 17.7192 186 16.8258ZM182.051 22.7516L180.601 30.0643C180.552 30.3134 180.261 30.5454 180 30.5454C179.739 30.5454 179.448 30.312 179.399 30.0647L177.736 21.6807C177.718 21.5869 177.68 21.4976 177.626 21.4178C177.572 21.3381 177.502 21.2695 177.421 21.2159C177.339 21.1624 177.247 21.1249 177.151 21.1057C177.054 21.0865 176.955 21.0859 176.858 21.104C176.762 21.122 176.669 21.1584 176.587 21.2109C176.505 21.2635 176.434 21.3313 176.379 21.4103C176.324 21.4894 176.285 21.5783 176.265 21.6718C176.246 21.7654 176.245 21.8618 176.263 21.9556L177.926 30.3392C178.111 31.2712 179.02 32 180 32C180.98 32 181.889 31.2727 182.074 30.3392L183.524 23.0265L183.736 21.9556C183.755 21.8618 183.754 21.7654 183.735 21.6718C183.715 21.5783 183.676 21.4894 183.621 21.4103C183.566 21.3313 183.495 21.2635 183.413 21.2109C183.331 21.1584 183.238 21.122 183.142 21.104C183.045 21.0859 182.946 21.0865 182.849 21.1057C182.753 21.1249 182.661 21.1624 182.579 21.2159C182.498 21.2695 182.428 21.3381 182.374 21.4178C182.32 21.4976 182.282 21.5869 182.264 21.6807L182.051 22.7516Z" fill="#ACACAC"/>
<path fill-rule="evenodd" clip-rule="evenodd" d="M182.25 23.6364C182.449 23.6364 182.64 23.5597 182.78 23.4234C182.921 23.287 183 23.102 183 22.9091C183 22.7162 182.921 22.5312 182.78 22.3948C182.64 22.2584 182.449 22.1818 182.25 22.1818H177.75C177.551 22.1818 177.36 22.2584 177.22 22.3948C177.079 22.5312 177 22.7162 177 22.9091C177 23.102 177.079 23.287 177.22 23.4234C177.36 23.5597 177.551 23.6364 177.75 23.6364H182.25ZM181.875 25.8182C182.074 25.8182 182.265 25.7416 182.405 25.6052C182.546 25.4688 182.625 25.2838 182.625 25.0909C182.625 24.898 182.546 24.713 182.405 24.5767C182.265 24.4403 182.074 24.3636 181.875 24.3636H178.125C177.926 24.3636 177.735 24.4403 177.595 24.5767C177.454 24.713 177.375 24.898 177.375 25.0909C177.375 25.2838 177.454 25.4688 177.595 25.6052C177.735 25.7416 177.926 25.8182 178.125 25.8182H181.875Z" fill="#ACACAC"/>
</g>
<g clip-path="url(#clip3_1_1675)">
<g clip-path="url(#clip4_1_1675)">
<path d="M241.308 33.5C240.803 33.5 240.375 33.325 240.025 32.975C239.675 32.625 239.5 32.1974 239.5 31.6923V18.3078C239.5 17.8026 239.675 17.375 240.025 17.025C240.375 16.675 240.803 16.5 241.308 16.5H242.692V15.1538C242.692 14.9346 242.766 14.7516 242.913 14.6048C243.059 14.4581 243.242 14.3848 243.461 14.3848C243.681 14.3848 243.864 14.4581 244.011 14.6048C244.157 14.7516 244.231 14.9346 244.231 15.1538V16.5H251.808V15.1348C251.808 14.9219 251.879 14.7437 252.023 14.6C252.167 14.4565 252.345 14.3848 252.558 14.3848C252.771 14.3848 252.949 14.4565 253.092 14.6C253.236 14.7437 253.308 14.9219 253.308 15.1348V16.5H254.692C255.197 16.5 255.625 16.675 255.975 17.025C256.325 17.375 256.5 17.8026 256.5 18.3078V31.6923C256.5 32.1974 256.325 32.625 255.975 32.975C255.625 33.325 255.197 33.5 254.692 33.5H241.308ZM241.308 32H254.692C254.769 32 254.84 31.9679 254.904 31.9038C254.968 31.8398 255 31.7693 255 31.6923V22.3078H241V31.6923C241 31.7693 241.032 31.8398 241.096 31.9038C241.16 31.9679 241.231 32 241.308 32ZM241 20.8078H255V18.3078C255 18.2308 254.968 18.1603 254.904 18.0963C254.84 18.0321 254.769 18 254.692 18H241.308C241.231 18 241.16 18.0321 241.096 18.0963C241.032 18.1603 241 18.2308 241 18.3078V20.8078Z" fill="#ACACAC"/>
<path d="M246.772 29.0518L248 28.275L249.228 29.062L248.907 27.5901L249.989 26.6089L248.565 26.476L248 25.0858L247.435 26.4658L246.011 26.5986L247.093 27.5901L246.772 29.0518ZM248 28.996L246.483 29.9552C246.426 29.9898 246.37 30.0044 246.313 29.9989C246.256 29.9933 246.205 29.9733 246.159 29.9388C246.113 29.9041 246.077 29.8589 246.052 29.8031C246.027 29.7473 246.023 29.6856 246.04 29.6179L246.443 27.8118L245.104 26.5963C245.054 26.5507 245.022 26.4979 245.008 26.4379C244.994 26.3778 244.998 26.3195 245.019 26.2629C245.04 26.2063 245.07 26.1601 245.11 26.1242C245.149 26.0882 245.203 26.0648 245.272 26.0537L247.039 25.8918L247.726 24.1863C247.751 24.1229 247.788 24.076 247.839 24.0456C247.89 24.0152 247.944 24 248 24C248.056 24 248.11 24.0152 248.161 24.0456C248.212 24.076 248.249 24.1229 248.274 24.1863L248.961 25.8918L250.728 26.0537C250.797 26.0648 250.851 26.0882 250.89 26.1242C250.93 26.1601 250.96 26.2063 250.981 26.2629C251.002 26.3195 251.006 26.3778 250.992 26.4379C250.978 26.4979 250.946 26.5507 250.896 26.5963L249.557 27.8118L249.96 29.6179C249.977 29.6856 249.973 29.7473 249.948 29.8031C249.923 29.8589 249.887 29.9041 249.841 29.9388C249.795 29.9733 249.744 29.9933 249.687 29.9989C249.63 30.0044 249.574 29.9898 249.517 29.9552L248 28.996Z" fill="#ACACAC"/>
</g>
</g>
<g clip-path="url(#clip5_1_1675)">
<path d="M316 34.6923C315.037 34.6923 314.214 34.3496 313.528 33.6643C312.843 32.9788 312.5 32.1548 312.5 31.1923C312.5 30.2298 312.843 29.4058 313.528 28.7205C314.214 28.035 315.037 27.6923 316 27.6923C316.963 27.6923 317.786 28.035 318.472 28.7205C319.157 29.4058 319.5 30.2298 319.5 31.1923C319.5 32.1548 319.157 32.9788 318.472 33.6643C317.786 34.3496 316.963 34.6923 316 34.6923ZM308.5 40.7885V40.0845C308.5 39.5948 308.633 39.1413 308.899 38.724C309.165 38.3067 309.52 37.9858 309.965 37.7615C310.954 37.277 311.951 36.9136 312.957 36.6713C313.963 36.4289 314.977 36.3078 316 36.3078C317.023 36.3078 318.037 36.4289 319.043 36.6713C320.049 36.9136 321.046 37.277 322.035 37.7615C322.48 37.9858 322.835 38.3067 323.101 38.724C323.367 39.1413 323.5 39.5948 323.5 40.0845V40.7885C323.5 41.2102 323.352 41.5688 323.057 41.8645C322.761 42.16 322.403 42.3078 321.981 42.3078H310.019C309.597 42.3078 309.239 42.16 308.943 41.8645C308.648 41.5688 308.5 41.2102 308.5 40.7885ZM310 40.8078H322V40.0845C322 39.882 321.941 39.6945 321.824 39.522C321.707 39.3497 321.547 39.209 321.346 39.1C320.485 38.6757 319.606 38.3542 318.711 38.1355C317.815 37.917 316.912 37.8078 316 37.8078C315.088 37.8078 314.185 37.917 313.289 38.1355C312.394 38.3542 311.515 38.6757 310.654 39.1C310.453 39.209 310.293 39.3497 310.176 39.522C310.059 39.6945 310 39.882 310 40.0845V40.8078ZM316 33.1923C316.55 33.1923 317.021 32.9964 317.413 32.6048C317.804 32.2131 318 31.7423 318 31.1923C318 30.6423 317.804 30.1714 317.413 29.7798C317.021 29.3881 316.55 29.1923 316 29.1923C315.45 29.1923 314.979 29.3881 314.588 29.7798C314.196 30.1714 314 30.6423 314 31.1923C314 31.7423 314.196 32.2131 314.588 32.6048C314.979 32.9964 315.45 33.1923 316 33.1923Z" fill="#ACACAC"/>
</g>
<g filter="url(#filter2_f_1_1675)">
<path d="M72 38.5C74.199 48.1949 58.6948 50.3012 48.9999 52.5002C39.3051 54.6991 31.6998 55.1948 29.5009 45.5C27.3019 35.8051 50.8051 33.1989 60.4999 30.9999C70.1948 28.801 69.801 28.8051 72 38.5Z" fill="#3399FF" fill-opacity="0.5"/>
</g>
<path d="M32.5 57.5C44.5 53 50 52 63 49.5" stroke="#3399FF" stroke-width="2" stroke-linecap="round"/>
<g clip-path="url(#clip6_1_1675)">
<path d="M38 42H41.3463V36.9615C41.3463 36.7055 41.4328 36.4908 41.606 36.3175C41.7793 36.1443 41.994 36.0577 42.25 36.0577H45.75C46.006 36.0577 46.2207 36.1443 46.394 36.3175C46.5672 36.4908 46.6538 36.7055 46.6538 36.9615V42H50V33.1537C50 33.1026 49.9888 33.0562 49.9663 33.0145C49.9439 32.9728 49.9135 32.9359 49.875 32.9037L44.1828 28.625C44.1314 28.5802 44.0705 28.5577 44 28.5577C43.9295 28.5577 43.8686 28.5802 43.8173 28.625L38.125 32.9037C38.0865 32.9359 38.0561 32.9728 38.0338 33.0145C38.0113 33.0562 38 33.1026 38 33.1537V42ZM36.5 42V33.1537C36.5 32.8676 36.564 32.5965 36.692 32.3405C36.8202 32.0843 36.9972 31.8734 37.223 31.7077L42.9155 27.4192C43.2313 27.1782 43.5923 27.0577 43.9985 27.0577C44.4047 27.0577 44.7667 27.1782 45.0845 27.4192L50.777 31.7077C51.0028 31.8734 51.1798 32.0843 51.308 32.3405C51.436 32.5965 51.5 32.8676 51.5 33.1537V42C51.5 42.409 51.3523 42.7612 51.0568 43.0567C50.7613 43.3522 50.409 43.5 50 43.5H46.0577C45.8016 43.5 45.5869 43.4133 45.4137 43.24C45.2404 43.0668 45.1538 42.8522 45.1538 42.596V37.5577H42.8463V42.596C42.8463 42.8522 42.7596 43.0668 42.5863 43.24C42.4131 43.4133 42.1984 43.5 41.9423 43.5H38C37.591 43.5 37.2387 43.3522 36.9432 43.0567C36.6477 42.7612 36.5 42.409 36.5 42Z" fill="url(#paint0_linear_1_1675)"/>
</g>
<path d="M171.668 48.08V56H170.372V48.08H171.668ZM166.46 48.08V56H165.176V48.08H166.46ZM171.02 51.44V52.544H165.824V51.44H171.02ZM176.354 49.88C176.938 49.88 177.454 50.004 177.902 50.252C178.35 50.5 178.698 50.86 178.946 51.332C179.202 51.796 179.33 52.352 179.33 53C179.33 53.648 179.202 54.208 178.946 54.68C178.698 55.144 178.35 55.5 177.902 55.748C177.454 55.996 176.938 56.12 176.354 56.12C175.77 56.12 175.254 55.996 174.806 55.748C174.358 55.5 174.006 55.144 173.75 54.68C173.494 54.208 173.366 53.648 173.366 53C173.366 52.352 173.494 51.796 173.75 51.332C174.006 50.86 174.358 50.5 174.806 50.252C175.254 50.004 175.77 49.88 176.354 49.88ZM176.354 50.888C175.994 50.888 175.686 50.972 175.43 51.14C175.182 51.3 174.99 51.536 174.854 51.848C174.718 52.16 174.65 52.544 174.65 53C174.65 53.448 174.718 53.832 174.854 54.152C174.99 54.464 175.182 54.704 175.43 54.872C175.686 55.032 175.994 55.112 176.354 55.112C176.714 55.112 177.018 55.032 177.266 54.872C177.514 54.704 177.706 54.464 177.842 54.152C177.978 53.832 178.046 53.448 178.046 53C178.046 52.544 177.978 52.16 177.842 51.848C177.706 51.536 177.514 51.3 177.266 51.14C177.018 50.972 176.714 50.888 176.354 50.888ZM180.945 56V50H182.085L182.145 51.008C182.353 50.624 182.629 50.34 182.973 50.156C183.325 49.972 183.697 49.88 184.089 49.88C184.521 49.88 184.917 49.98 185.277 50.18C185.645 50.372 185.921 50.664 186.105 51.056C186.233 50.792 186.409 50.572 186.633 50.396C186.857 50.22 187.105 50.092 187.377 50.012C187.649 49.924 187.917 49.88 188.181 49.88C188.565 49.88 188.925 49.96 189.261 50.12C189.597 50.28 189.869 50.524 190.077 50.852C190.285 51.18 190.389 51.6 190.389 52.112V56H189.105V52.316C189.105 51.828 188.989 51.476 188.757 51.26C188.525 51.044 188.229 50.936 187.869 50.936C187.589 50.936 187.329 51.004 187.089 51.14C186.857 51.276 186.669 51.48 186.525 51.752C186.381 52.016 186.309 52.344 186.309 52.736V56H185.025V52.316C185.025 51.828 184.909 51.476 184.677 51.26C184.445 51.044 184.149 50.936 183.789 50.936C183.549 50.936 183.309 51 183.069 51.128C182.829 51.256 182.629 51.456 182.469 51.728C182.309 52 182.229 52.36 182.229 52.808V56H180.945ZM194.976 56.12C194.376 56.12 193.848 55.996 193.392 55.748C192.936 55.5 192.58 55.144 192.324 54.68C192.076 54.208 191.952 53.648 191.952 53C191.952 52.352 192.076 51.796 192.324 51.332C192.58 50.86 192.932 50.5 193.38 50.252C193.828 50.004 194.336 49.88 194.904 49.88C195.488 49.88 195.984 50 196.392 50.24C196.8 50.48 197.112 50.808 197.328 51.224C197.544 51.64 197.652 52.112 197.652 52.64C197.652 52.784 197.648 52.92 197.64 53.048C197.632 53.176 197.62 53.288 197.604 53.384H192.78V52.4H197.04L196.404 52.592C196.404 52.048 196.268 51.632 195.996 51.344C195.724 51.048 195.352 50.9 194.88 50.9C194.536 50.9 194.236 50.98 193.98 51.14C193.724 51.3 193.528 51.54 193.392 51.86C193.256 52.172 193.188 52.556 193.188 53.012C193.188 53.46 193.26 53.84 193.404 54.152C193.548 54.464 193.752 54.7 194.016 54.86C194.28 55.02 194.592 55.1 194.952 55.1C195.352 55.1 195.676 55.024 195.924 54.872C196.172 54.72 196.368 54.508 196.512 54.236L197.532 54.716C197.388 55.004 197.192 55.256 196.944 55.472C196.704 55.68 196.416 55.84 196.08 55.952C195.744 56.064 195.376 56.12 194.976 56.12Z" fill="white"/>
</g>
<defs>
<filter id="filter0_bi_1_1675" x="-16" y="-8" width="389" height="136" filterUnits="userSpaceOnUse" color-interpolation-filters="sRGB">
<feFlood flood-opacity="0" result="BackgroundImageFix"/>
<feGaussianBlur in="BackgroundImageFix" stdDeviation="4"/>
<feComposite in2="SourceAlpha" operator="in" result="effect1_backgroundBlur_1_1675"/>
<feBlend mode="normal" in="SourceGraphic" in2="effect1_backgroundBlur_1_1675" result="shape"/>
<feColorMatrix in="SourceAlpha" type="matrix" values="0 0 0 0 0 0 0 0 0 0 0 0 0 0 0 0 0 0 127 0" result="hardAlpha"/>
<feOffset dy="4"/>
<feGaussianBlur stdDeviation="8"/>
<feComposite in2="hardAlpha" operator="arithmetic" k2="-1" k3="1"/>
<feColorMatrix type="matrix" values="0 0 0 0 1 0 0 0 0 1 0 0 0 0 1 0 0 0 0.15 0"/>
<feBlend mode="normal" in2="shape" result="effect2_innerShadow_1_1675"/>
</filter>
<filter id="filter1_bd_1_1675" x="-14" y="26" width="388" height="111" filterUnits="userSpaceOnUse" color-interpolation-filters="sRGB">
<feFlood flood-opacity="0" result="BackgroundImageFix"/>
<feGaussianBlur in="BackgroundImageFix" stdDeviation="4"/>
<feComposite in2="SourceAlpha" operator="in" result="effect1_backgroundBlur_1_1675"/>
<feColorMatrix in="SourceAlpha" type="matrix" values="0 0 0 0 0 0 0 0 0 0 0 0 0 0 0 0 0 0 127 0" result="hardAlpha"/>
<feMorphology radius="1" operator="dilate" in="SourceAlpha" result="effect2_dropShadow_1_1675"/>
<feOffset dy="-5"/>
<feGaussianBlur stdDeviation="4"/>
<feComposite in2="hardAlpha" operator="out"/>
<feColorMatrix type="matrix" values="0 0 0 0 0.344824 0 0 0 0 0.344824 0 0 0 0 0.344824 0 0 0 0.16 0"/>
<feBlend mode="normal" in2="effect1_backgroundBlur_1_1675" result="effect2_dropShadow_1_1675"/>
<feBlend mode="normal" in="SourceGraphic" in2="effect2_dropShadow_1_1675" result="shape"/>
</filter>
<filter id="filter2_f_1_1675" x="9.35652" y="9.81097" width="82.8543" height="64.0084" filterUnits="userSpaceOnUse" color-interpolation-filters="sRGB">
<feFlood flood-opacity="0" result="BackgroundImageFix"/>
<feBlend mode="normal" in="SourceGraphic" in2="BackgroundImageFix" result="shape"/>
<feGaussianBlur stdDeviation="10" result="effect1_foregroundBlur_1_1675"/>
</filter>
<linearGradient id="paint0_linear_1_1675" x1="35" y1="28.0001" x2="54.5" y2="46.0001" gradientUnits="userSpaceOnUse">
<stop stop-color="#3399FF" stop-opacity="0.929412"/>
<stop offset="1" stop-color="white"/>
</linearGradient>
<clipPath id="clip0_1_1675">
<rect width="360" height="66" fill="white"/>
</clipPath>
<clipPath id="clip1_1_1675">
<rect width="24" height="24" fill="white" transform="translate(100 12)"/>
</clipPath>
<clipPath id="clip2_1_1675">
<rect width="12" height="24" fill="white" transform="translate(174 8)"/>
</clipPath>
<clipPath id="clip3_1_1675">
<rect width="24" height="24" fill="white" transform="translate(236 12)"/>
</clipPath>
<clipPath id="clip4_1_1675">
<rect width="24" height="24" fill="white" transform="translate(236 12)"/>
</clipPath>
<clipPath id="clip5_1_1675">
<rect width="24" height="24" fill="white" transform="translate(304 23)"/>
</clipPath>
<clipPath id="clip6_1_1675">
<rect width="24" height="24" fill="white" transform="translate(32 23)"/>
</clipPath>
</defs>
</svg>
